<svg width="102" height="49" viewBox="0 0 102 49" fill="none" xmlns="http://www.w3.org/2000/svg">
<path d="M0 12.403H2.90834V26.2362H0V12.403Z" fill="#29292E"/>
<path d="M14.6868 21.2585C14.6868 21.2958 14.6681 21.5568 14.6308 22.0415H7.04305C7.17977 22.6629 7.50292 23.1539 8.0125 23.5143C8.52208 23.8747 9.15595 24.055 9.91411 24.055C10.4361 24.055 10.896 23.9804 11.2937 23.8312C11.7039 23.6697 12.0829 23.4211 12.4309 23.0855L13.9783 24.7634C13.0337 25.8447 11.6541 26.3854 9.83953 26.3854C8.70851 26.3854 7.70799 26.1679 6.83798 25.7328C5.96796 25.2854 5.29681 24.6702 4.82451 23.8872C4.35222 23.1042 4.11607 22.2155 4.11607 21.2212C4.11607 20.2393 4.346 19.3569 4.80587 18.5739C5.27816 17.7784 5.91825 17.1632 6.72612 16.7282C7.54642 16.2807 8.45994 16.057 9.46667 16.057C10.4485 16.057 11.3372 16.2683 12.1326 16.6909C12.9281 17.1135 13.5495 17.7225 13.997 18.5179C14.4568 19.3009 14.6868 20.2145 14.6868 21.2585ZM9.48531 18.2569C8.82659 18.2569 8.27351 18.4434 7.82607 18.8162C7.37863 19.1891 7.1052 19.6987 7.00577 20.345H11.9462C11.8468 19.7111 11.5734 19.2077 11.1259 18.8349C10.6785 18.4496 10.1316 18.2569 9.48531 18.2569Z" fill="#29292E"/>
<path d="M22.3465 25.7515C22.0606 25.9628 21.7064 26.1244 21.2838 26.2362C20.8737 26.3356 20.4387 26.3854 19.9788 26.3854C18.7857 26.3854 17.8597 26.0809 17.201 25.4718C16.5547 24.8628 16.2315 23.968 16.2315 22.7872V18.6671H14.6841V16.4299H16.2315V13.9876H19.1399V16.4299H21.6381V18.6671H19.1399V22.7499C19.1399 23.1725 19.2455 23.5019 19.4568 23.738C19.6805 23.9617 19.9912 24.0736 20.389 24.0736C20.8488 24.0736 21.2403 23.9493 21.5635 23.7007L22.3465 25.7515Z" fill="#29292E"/>
<path d="M36.0785 16.057C37.3338 16.057 38.3282 16.4299 39.0615 17.1756C39.8072 17.9089 40.18 19.0151 40.18 20.4941V26.2362H37.2717V20.9415C37.2717 20.1461 37.1039 19.5557 36.7683 19.1704C36.4452 18.7727 35.9791 18.5739 35.3701 18.5739C34.6865 18.5739 34.1459 18.7976 33.7481 19.245C33.3504 19.68 33.1516 20.3325 33.1516 21.2025V26.2362H30.2432V20.9415C30.2432 19.3631 29.6093 18.5739 28.3416 18.5739C27.6705 18.5739 27.136 18.7976 26.7383 19.245C26.3406 19.68 26.1417 20.3325 26.1417 21.2025V26.2362H23.2334V16.2062H26.0112V17.362C26.3841 16.9395 26.8377 16.6163 27.3722 16.3926C27.919 16.1689 28.5156 16.057 29.1619 16.057C29.8704 16.057 30.5104 16.2 31.0822 16.4858C31.6539 16.7593 32.1137 17.1632 32.4618 17.6976C32.8719 17.1756 33.3877 16.7717 34.0091 16.4858C34.643 16.2 35.3328 16.057 36.0785 16.057Z" fill="#29292E"/>
<path d="M51.9754 21.2585C51.9754 21.2958 51.9567 21.5568 51.9194 22.0415H44.3317C44.4684 22.6629 44.7915 23.1539 45.3011 23.5143C45.8107 23.8747 46.4445 24.055 47.2027 24.055C47.7247 24.055 48.1846 23.9804 48.5823 23.8312C48.9925 23.6697 49.3715 23.4211 49.7195 23.0855L51.2669 24.7634C50.3223 25.8447 48.9427 26.3854 47.1281 26.3854C45.9971 26.3854 44.9966 26.1679 44.1266 25.7328C43.2566 25.2854 42.5854 24.6702 42.1131 23.8872C41.6408 23.1042 41.4047 22.2155 41.4047 21.2212C41.4047 20.2393 41.6346 19.3569 42.0945 18.5739C42.5668 17.7784 43.2068 17.1632 44.0147 16.7282C44.835 16.2807 45.7485 16.057 46.7553 16.057C47.7371 16.057 48.6258 16.2683 49.4212 16.6909C50.2167 17.1135 50.8381 17.7225 51.2856 18.5179C51.7454 19.3009 51.9754 20.2145 51.9754 21.2585ZM46.7739 18.2569C46.1152 18.2569 45.5621 18.4434 45.1147 18.8162C44.6672 19.1891 44.3938 19.6987 44.2944 20.345H49.2348C49.1354 19.7111 48.862 19.2077 48.4145 18.8349C47.9671 18.4496 47.4202 18.2569 46.7739 18.2569Z" fill="#29292E"/>
<path d="M64.174 14.066C65.4093 14.066 66.35 14.3493 66.996 14.916C67.642 15.4713 67.965 16.1967 67.965 17.092C67.965 17.3527 67.9423 17.5963 67.897 17.823C67.761 18.6163 67.4153 19.3247 66.86 19.948C66.3047 20.5713 65.5623 21.0133 64.633 21.274L66.554 26H63.273L61.59 21.495H60.893L60.094 26H57.187L59.295 14.066H64.174ZM64.922 17.942C64.9447 17.7607 64.956 17.6417 64.956 17.585C64.956 17.2223 64.837 16.9447 64.599 16.752C64.3723 16.548 64.0323 16.446 63.579 16.446H61.777L61.25 19.438H63.052C63.5847 19.438 64.004 19.3077 64.31 19.047C64.6273 18.7863 64.8313 18.418 64.922 17.942ZM74.1928 16.378C75.4168 16.378 76.3858 16.7123 77.0998 17.381C77.8252 18.0383 78.1878 18.9393 78.1878 20.084C78.1878 20.458 78.1595 20.7923 78.1028 21.087C78.0575 21.3477 77.9895 21.6253 77.8988 21.92H71.3198C71.3085 21.988 71.3028 22.0957 71.3028 22.243C71.3028 22.7417 71.4388 23.1213 71.7108 23.382C71.9828 23.6427 72.3455 23.773 72.7988 23.773C73.5242 23.773 74.0795 23.467 74.4648 22.855H77.5588C77.1508 23.8183 76.4878 24.606 75.5698 25.218C74.6518 25.83 73.6205 26.136 72.4758 26.136C71.2518 26.136 70.2715 25.796 69.5348 25.116C68.8095 24.436 68.4468 23.5123 68.4468 22.345C68.4468 21.9937 68.4808 21.631 68.5488 21.257C68.7188 20.271 69.0702 19.4097 69.6028 18.673C70.1355 17.9363 70.7985 17.3697 71.5918 16.973C72.3852 16.5763 73.2522 16.378 74.1928 16.378ZM75.2468 20.441C75.2695 20.2823 75.2808 20.1747 75.2808 20.118C75.2808 19.6647 75.1392 19.319 74.8558 19.081C74.5725 18.8317 74.1985 18.707 73.7338 18.707C73.2352 18.707 72.7932 18.86 72.4078 19.166C72.0338 19.4607 71.7618 19.8857 71.5918 20.441H75.2468ZM79.0074 21.274C79.1774 20.3333 79.5174 19.4947 80.0274 18.758C80.5488 18.0213 81.1778 17.449 81.9144 17.041C82.6511 16.6217 83.4104 16.412 84.1924 16.412C84.8044 16.412 85.3258 16.5197 85.7564 16.735C86.1871 16.939 86.5271 17.228 86.7764 17.602L86.9634 16.514H89.8704L87.4054 30.522H84.4984L85.5014 24.81C85.1048 25.2067 84.6458 25.524 84.1244 25.762C83.6144 26 83.0591 26.119 82.4584 26.119C81.7784 26.119 81.1664 25.9603 80.6224 25.643C80.0898 25.3257 79.6704 24.8837 79.3644 24.317C79.0584 23.739 78.9054 23.0703 78.9054 22.311C78.9054 21.971 78.9394 21.6253 79.0074 21.274ZM86.1304 21.257C86.1644 21.0643 86.1814 20.883 86.1814 20.713C86.1814 20.135 86.0114 19.693 85.6714 19.387C85.3428 19.081 84.9404 18.928 84.4644 18.928C84.1244 18.928 83.7788 19.0187 83.4274 19.2C83.0761 19.37 82.7644 19.6307 82.4924 19.982C82.2318 20.3333 82.0561 20.764 81.9654 21.274C81.9314 21.4553 81.9144 21.631 81.9144 21.801C81.9144 22.379 82.0844 22.8267 82.4244 23.144C82.7644 23.45 83.1668 23.603 83.6314 23.603C83.9714 23.603 84.3171 23.518 84.6684 23.348C85.0198 23.1667 85.3258 22.9003 85.5864 22.549C85.8584 22.1977 86.0398 21.767 86.1304 21.257Z" fill="url(#paint0_linear_1106_2813)"/>
<path d="M52.723 10.3894V5.72864C52.723 3.66937 54.3924 2 56.4517 2H96.5346C98.5938 2 100.263 3.66937 100.263 5.72864V31.8291C100.263 33.8884 98.5938 35.5578 96.5346 35.5578H90.0094L92.1901 45.7343C92.3807 46.6238 91.3148 47.2316 90.6464 46.6146L80.6878 37.4221H56.4517C54.3924 37.4221 52.723 35.7527 52.723 33.6935V31.8291" stroke="url(#paint1_linear_1106_2813)" stroke-width="2.79648"/>
<defs>
<linearGradient id="paint0_linear_1106_2813" x1="57" y1="7" x2="77.2395" y2="41.5635" gradientUnits="userSpaceOnUse">
<stop stop-color="#485BFF"/>
<stop offset="1" stop-color="#FF59F8"/>
</linearGradient>
<linearGradient id="paint1_linear_1106_2813" x1="52.723" y1="2" x2="91.8738" y2="50.4723" gradientUnits="userSpaceOnUse">
<stop stop-color="#485BFF"/>
<stop offset="1" stop-color="#FF59F8"/>
</linearGradient>
</defs>
</svg>
